Coordinates
version=1
nRows=27
nColumns=33
inDegrees=yes

Units are S.I. units (second, meters, Newtons, ...)
Angles are in degrees.

endheader
time	ground_thorax_rot_x	ground_thorax_rot_y	ground_thorax_rot_z	ground_thorax_tx	ground_thorax_ty	ground_thorax_tz	clav_prot_r	clav_elev_r	scapula_abduction_r	scapula_elevation_r	scapula_upward_rot_r	scapula_winging_r	shoulder_elv_r	plane_of_elev_r	axial_rot_r	elbow_flexion_r	pro_sup_r	wrist_flex_r	wrist_dev_r	clav_prot_l	clav_elev_l	scapula_abduction_l	scapula_elevation_l	scapula_upward_rot_l	scapula_winging_l	shoulder_elv_l	plane_of_elev_l	axial_rot_l	elbow_flexion_l	pro_sup_l	wrist_flex_l	wrist_dev_l	
2.8800	2.173942	5.056503	12.915946	-0.120734	1.035316	0.028231	5.124176	10.789578	18.182720	7.306144	21.018159	-10.277256	12.124873	-75.267230	53.597236	55.848542	-23.935136	69.999999	-25.000000	10.845805	-4.738332	-16.298253	-21.327752	-44.087367	-0.759217	62.635949	-38.340677	-3.720273	68.635069	23.807428	-1.280770	-24.999999	
2.8900	1.990353	5.293343	12.938775	-0.120855	1.034940	0.028355	4.692609	10.666747	17.516101	7.164302	21.163805	-10.083089	11.936556	-75.048007	53.878403	55.676474	-24.419739	69.999999	-25.000000	11.028015	-4.598155	-16.667553	-21.520602	-44.240298	-0.637030	62.676739	-37.849278	-3.697588	68.343777	23.900674	-2.545712	-24.999999	
2.9000	1.896979	5.432840	12.973999	-0.121032	1.034536	0.028464	4.457772	10.567894	17.126183	7.076065	21.196180	-9.962209	11.863603	-74.910287	54.002443	55.616246	-24.690437	69.999998	-25.000000	11.134110	-4.580234	-16.884027	-21.573154	-44.331762	-0.558119	62.703266	-37.574044	-3.646535	68.180827	23.942826	-3.262310	-24.999998	
2.9100	1.793811	5.582832	13.006551	-0.121167	1.034173	0.028601	4.207767	10.459354	16.704432	6.982639	21.221118	-9.829741	11.820127	-74.754274	54.110744	55.569718	-24.990038	69.999995	-25.000000	11.262382	-4.575530	-17.144540	-21.617938	-44.436738	-0.460200	62.745506	-37.293986	-3.583476	68.016537	23.983175	-4.046518	-24.999997	
2.9200	1.723081	5.696638	13.040513	-0.121279	1.033831	0.028749	4.030677	10.358035	16.380811	6.909760	21.198080	-9.722017	11.844796	-74.622782	54.145584	55.581197	-25.217773	69.999992	-25.000000	11.372201	-4.625080	-17.368064	-21.604812	-44.526006	-0.369926	62.790460	-37.099187	-3.503737	67.906533	23.998646	-4.635463	-24.999995	
2.9300	1.682810	5.770992	13.075951	-0.121350	1.033501	0.028898	3.921362	10.274311	16.159996	6.858795	21.149094	-9.643846	11.921454	-74.520369	54.125382	55.640616	-25.373358	69.999985	-25.000000	11.459480	-4.704695	-17.545711	-21.555361	-44.595589	-0.293302	62.833746	-36.976679	-3.420629	67.850659	23.989945	-5.020988	-24.999990	
2.9400	1.671264	5.814992	13.101519	-0.121377	1.033210	0.029061	3.867526	10.199841	16.009879	6.827796	21.060540	-9.582766	12.070247	-74.441272	54.047396	55.767879	-25.478782	69.999973	-25.000000	11.536462	-4.823960	-17.705805	-21.469474	-44.667048	-0.220896	62.877746	-36.910658	-3.323175	67.841871	23.948690	-5.241040	-24.999983	
2.9500	1.682521	5.827849	13.115361	-0.121348	1.032949	0.029227	3.858978	10.144296	15.929368	6.816173	20.958884	-9.542594	12.266510	-74.387966	53.938746	55.947017	-25.536901	69.999951	-25.000000	11.601722	-4.954427	-17.843389	-21.371470	-44.733817	-0.156600	62.916385	-36.884202	-3.226078	67.878552	23.876556	-5.304009	-24.999970	
2.9600	1.695321	5.834650	13.109722	-0.121251	1.032744	0.029405	3.849752	10.098506	15.849540	6.810647	20.863938	-9.503664	12.489319	-74.339683	53.834681	56.161598	-25.598909	69.999912	-25.000000	11.678483	-5.075092	-18.003826	-21.286518	-44.810095	-0.084920	62.952454	-36.848390	-3.131226	67.935745	23.779632	-5.344538	-24.999946	
2.9700	1.705722	5.832110	13.086846	-0.121093	1.032584	0.029580	3.839920	10.069851	15.785211	6.810280	20.796475	-9.473973	12.719851	-74.299253	53.753983	56.402954	-25.654041	69.999843	-25.000000	11.766162	-5.170017	-18.179606	-21.220873	-44.875849	-0.006692	62.975314	-36.804197	-3.050974	68.023754	23.652734	-5.348702	-24.999903	
2.9800	1.715150	5.828988	13.035127	-0.120892	1.032468	0.029764	3.830602	10.050589	15.726383	6.814605	20.738587	-9.447548	12.982575	-74.261721	53.688431	56.706997	-25.706434	69.999719	-25.000000	11.878806	-5.259945	-18.396497	-21.155252	-44.934031	0.091399	62.986923	-36.751522	-2.970001	68.159125	23.476987	-5.324893	-24.999827	
2.9900	1.726096	5.834743	12.969882	-0.120664	1.032378	0.029952	3.819568	10.042094	15.668363	6.824985	20.690232	-9.423379	13.302524	-74.244584	53.659214	57.091445	-25.752122	69.999496	-25.000000	12.032437	-5.342216	-18.676954	-21.084069	-44.968204	0.222677	62.954504	-36.690067	-2.888016	68.345475	23.203247	-5.235193	-24.999690	
3.0000	1.733697	5.853558	12.894314	-0.120419	1.032317	0.030142	3.805830	10.039077	15.607935	6.838124	20.647585	-9.399524	13.678844	-74.235661	53.674823	57.551219	-25.787825	69.999097	-25.000000	12.228453	-5.419219	-19.023288	-21.004912	-44.978400	0.388406	62.885559	-36.611334	-2.794436	68.579123	22.823744	-5.074618	-24.999445	
3.0100	1.731959	5.901582	12.825158	-0.120182	1.032301	0.030327	3.776735	10.024683	15.508024	6.848126	20.587655	-9.360933	14.173660	-74.226124	53.772005	58.087933	-25.808963	69.998381	-25.000000	12.495197	-5.497947	-19.486388	-20.911599	-44.969319	0.612721	62.742747	-36.501376	-2.660251	68.848297	22.244415	-4.783234	-24.999005	
3.0200	1.711906	5.969545	12.756781	-0.119942	1.032333	0.030516	3.731208	9.997916	15.374828	6.850555	20.520199	-9.310667	14.742996	-74.189492	53.927219	58.674636	-25.815278	69.997101	-25.000000	12.805969	-5.579721	-20.023481	-20.809478	-44.952762	0.873650	62.580132	-36.353845	-2.479844	69.140262	21.531525	-4.401837	-24.998219	
3.0300	1.676012	6.054859	12.699416	-0.119688	1.032422	0.030703	3.663283	9.959906	15.206452	6.842336	20.457311	-9.250033	15.374254	-74.132148	54.122195	59.292046	-25.806055	69.994805	-25.000000	13.143820	-5.666181	-20.604797	-20.697948	-44.928547	1.157778	62.412540	-36.168083	-2.258690	69.441638	20.708903	-3.928902	-24.996808	
3.0400	1.621055	6.129778	12.643612	-0.119384	1.032556	0.030889	3.581418	9.929710	15.054937	6.821127	20.450824	-9.202758	15.946523	-74.041629	54.303411	59.883867	-25.777469	69.990699	-25.000000	13.445128	-5.741571	-21.116804	-20.592297	-44.889421	1.411651	62.324296	-35.950933	-2.031974	69.740622	19.937826	-3.443848	-24.994286	
3.0500	1.558261	6.207388	12.587952	-0.119038	1.032739	0.031073	3.472744	9.894166	14.896070	6.777908	20.495384	-9.160029	16.517920	-73.941987	54.470302	60.474968	-25.723372	69.983324	-24.999999	13.722284	-5.831007	-21.585474	-20.475123	-44.850653	1.647084	62.312577	-35.695854	-1.795199	70.040118	19.142976	-2.855965	-24.989754	
3.0600	1.493042	6.268772	12.524116	-0.118633	1.032931	0.031260	3.354448	9.873044	14.775357	6.720746	20.614831	-9.139785	17.017900	-73.834413	54.575908	61.057533	-25.655753	69.970170	-24.999999	13.940754	-5.927488	-21.947766	-20.350920	-44.802929	1.834910	62.417476	-35.414297	-1.574232	70.339310	18.440546	-2.238649	-24.981674	
3.0700	1.438002	6.323912	12.459777	-0.118190	1.033115	0.031449	3.233625	9.860295	14.685883	6.654177	20.781512	-9.135407	17.497527	-73.735331	54.621844	61.660956	-25.588892	69.946451	-24.999998	14.124538	-6.046145	-22.244677	-20.202706	-44.742944	1.995913	62.596710	-35.108504	-1.364135	70.633828	17.783459	-1.566908	-24.967097	
3.0800	1.390823	6.358527	12.397057	-0.117722	1.033269	0.031629	3.134438	9.868584	14.668246	6.589130	20.993761	-9.159649	17.914456	-73.625372	54.601161	62.263239	-25.543227	69.904399	-24.999997	14.266295	-6.170097	-22.457536	-20.038070	-44.651063	2.122387	62.837499	-34.785282	-1.171637	70.910170	17.236834	-0.900153	-24.941276	
3.0900	1.352469	6.389244	12.338563	-0.117257	1.033392	0.031789	3.054304	9.879647	14.697814	6.521498	21.219414	-9.199399	18.344333	-73.502821	54.559100	62.879931	-25.519457	69.827855	-24.999994	14.406368	-6.309338	-22.657359	-19.846263	-44.529359	2.247974	63.087617	-34.433770	-0.973429	71.163140	16.683180	-0.144978	-24.894207	
3.1000	1.329615	6.402616	12.290667	-0.116800	1.033479	0.031917	3.017391	9.902433	14.817540	6.458503	21.458163	-9.268063	18.767662	-73.374273	54.494710	63.501557	-25.548244	69.694140	-24.999989	14.533802	-6.467701	-22.825564	-19.626104	-44.381142	2.362570	63.351062	-34.060895	-0.764022	71.379993	16.129182	0.782731	-24.812174	
3.1100	1.317902	6.400004	12.246759	-0.116345	1.033526	0.032008	3.017219	9.930617	15.015957	6.395518	21.708394	-9.361203	19.191977	-73.231248	54.412957	64.124853	-25.614320	69.445135	-24.999981	14.650097	-6.640404	-22.964145	-19.380099	-44.202473	2.467502	63.627691	-33.661665	-0.549672	71.559394	15.568951	1.895196	-24.658864	
3.1200	1.310558	6.383344	12.212036	-0.115889	1.033533	0.032055	3.050075	9.960382	15.284561	6.330631	21.966737	-9.475820	19.621083	-73.070515	54.321343	64.742623	-25.695937	69.025563	-24.999966	14.758539	-6.823531	-23.079185	-19.111547	-43.993190	2.565084	63.917755	-33.238677	-0.338952	71.691626	15.002495	3.186822	-24.402006	
3.1300	1.300328	6.363216	12.176228	-0.115428	1.033509	0.032060	3.091771	9.978891	15.581223	6.253716	22.232794	-9.598179	20.101422	-72.887517	54.231975	65.381290	-25.736333	68.200110	-24.999939	14.867557	-7.009681	-23.184136	-18.822811	-43.745027	2.662997	64.216386	-32.774306	-0.143860	71.781865	14.390599	4.718580	-23.897853	
3.1400	1.286347	6.341004	12.140748	-0.114968	1.033458	0.032014	3.145324	9.982755	15.908702	6.163533	22.501816	-9.728354	20.634779	-72.680886	54.141243	66.027748	-25.688772	66.938886	-24.999891	14.981598	-7.201162	-23.287211	-18.511938	-43.458889	2.764899	64.520627	-32.268222	0.022494	71.817770	13.750387	6.435814	-23.146584	
